<svg xmlns="http://www.w3.org/2000/svg" width="640" height="860" viewBox="0 0 640 860"><rect width="640" height="860" fill="#FFF1E5"/><rect x="0" y="0" width="80" height="80" fill="#B33147" opacity="1"/><rect x="0" y="80" width="80" height="80" fill="#FFF1E5" opacity="1"/><rect x="0" y="160" width="80" height="80" fill="#B33147" opacity="1"/><rect x="0" y="240" width="80" height="80" fill="#FFF1E5" opacity="1"/><rect x="0" y="320" width="80" height="80" fill="#B33147" opacity="1"/><rect x="0" y="400" width="80" height="80" fill="#FFF1E5" opacity="1"/><rect x="0" y="480" width="80" height="80" fill="#B33147" opacity="1"/><rect x="0" y="560" width="80" height="80" fill="#FFF1E5" opacity="1"/><rect x="0" y="640" width="80" height="80" fill="#B33147" opacity="1"/><rect x="0" y="720" width="80" height="80" fill="#FFF1E5" opacity="1"/><rect x="0" y="800" width="80" height="80" fill="#B33147" opacity="1"/><rect x="80" y="0" width="80" height="80" fill="#FFF1E5" opacity="1"/><rect x="80" y="80" width="80" height="80" fill="#B33147" opacity="1"/><rect x="80" y="160" width="80" height="80" fill="#FFF1E5" opacity="1"/><rect x="80" y="640" width="80" height="80" fill="#FFF1E5" opacity="1"/><rect x="80" y="720" width="80" height="80" fill="#B33147" opacity="1"/><rect x="80" y="800" width="80" height="80" fill="#FFF1E5" opacity="1"/><rect x="160" y="0" width="80" height="80" fill="#B33147" opacity="1"/><rect x="160" y="80" width="80" height="80" fill="#FFF1E5" opacity="1"/><rect x="160" y="160" width="80" height="80" fill="#B33147" opacity="1"/><rect x="160" y="640" width="80" height="80" fill="#B33147" opacity="1"/><rect x="160" y="720" width="80" height="80" fill="#FFF1E5" opacity="1"/><rect x="160" y="800" width="80" height="80" fill="#B33147" opacity="1"/><rect x="240" y="0" width="80" height="80" fill="#FFF1E5" opacity="1"/><rect x="240" y="80" width="80" height="80" fill="#B33147" opacity="1"/><rect x="240" y="160" width="80" height="80" fill="#FFF1E5" opacity="1"/><rect x="240" y="640" width="80" height="80" fill="#FFF1E5" opacity="1"/><rect x="240" y="720" width="80" height="80" fill="#B33147" opacity="1"/><rect x="240" y="800" width="80" height="80" fill="#FFF1E5" opacity="1"/><rect x="320" y="0" width="80" height="80" fill="#B33147" opacity="1"/><rect x="320" y="80" width="80" height="80" fill="#FFF1E5" opacity="1"/><rect x="320" y="160" width="80" height="80" fill="#B33147" opacity="1"/><rect x="320" y="640" width="80" height="80" fill="#B33147" opacity="1"/><rect x="320" y="720" width="80" height="80" fill="#FFF1E5" opacity="1"/><rect x="320" y="800" width="80" height="80" fill="#B33147" opacity="1"/><rect x="400" y="0" width="80" height="80" fill="#FFF1E5" opacity="1"/><rect x="400" y="80" width="80" height="80" fill="#B33147" opacity="1"/><rect x="400" y="160" width="80" height="80" fill="#FFF1E5" opacity="1"/><rect x="400" y="640" width="80" height="80" fill="#FFF1E5" opacity="1"/><rect x="400" y="720" width="80" height="80" fill="#B33147" opacity="1"/><rect x="400" y="800" width="80" height="80" fill="#FFF1E5" opacity="1"/><rect x="480" y="0" width="80" height="80" fill="#B33147" opacity="1"/><rect x="480" y="80" width="80" height="80" fill="#FFF1E5" opacity="1"/><rect x="480" y="160" width="80" height="80" fill="#B33147" opacity="1"/><rect x="480" y="640" width="80" height="80" fill="#B33147" opacity="1"/><rect x="480" y="720" width="80" height="80" fill="#FFF1E5" opacity="1"/><rect x="480" y="800" width="80" height="80" fill="#B33147" opacity="1"/><rect x="560" y="0" width="80" height="80" fill="#FFF1E5" opacity="1"/><rect x="560" y="80" width="80" height="80" fill="#B33147" opacity="1"/><rect x="560" y="160" width="80" height="80" fill="#FFF1E5" opacity="1"/><rect x="560" y="240" width="80" height="80" fill="#B33147" opacity="1"/><rect x="560" y="320" width="80" height="80" fill="#FFF1E5" opacity="1"/><rect x="560" y="400" width="80" height="80" fill="#B33147" opacity="1"/><rect x="560" y="480" width="80" height="80" fill="#FFF1E5" opacity="1"/><rect x="560" y="560" width="80" height="80" fill="#B33147" opacity="1"/><rect x="560" y="640" width="80" height="80" fill="#FFF1E5" opacity="1"/><rect x="560" y="720" width="80" height="80" fill="#B33147" opacity="1"/><rect x="560" y="800" width="80" height="80" fill="#FFF1E5" opacity="1"/><rect x="58" y="175" width="524" height="500" rx="110" fill="#FFF1E5" stroke="#B33147" stroke-width="3"/></svg>