<svg xmlns="http://www.w3.org/2000/svg" width="640" height="860" viewBox="0 0 640 860"><rect width="640" height="860" fill="#ECDCD1"/><g transform="translate(80 140) rotate(-40)"><path d="M0 90Q-68 22 0 0Q68 22 0 90" fill="#7E8969"/><path d="M0 12V95" stroke="#ffffff" stroke-opacity=".35" stroke-width="3"/></g><g transform="translate(90 155)"><ellipse cy="-43" rx="23" ry="43" fill="#A96666" transform="rotate(0)"/><ellipse cy="-43" rx="23" ry="43" fill="#A96666" transform="rotate(51.42857142857143)"/><ellipse cy="-43" rx="23" ry="43" fill="#A96666" transform="rotate(102.85714285714286)"/><ellipse cy="-43" rx="23" ry="43" fill="#A96666" transform="rotate(154.28571428571428)"/><ellipse cy="-43" rx="23" ry="43" fill="#A96666" transform="rotate(205.71428571428572)"/><ellipse cy="-43" rx="23" ry="43" fill="#A96666" transform="rotate(257.14285714285717)"/><ellipse cy="-43" rx="23" ry="43" fill="#A96666" transform="rotate(308.57142857142856)"/><circle cx="0" cy="0" r="23" fill="#E8B84D"/></g><g transform="translate(540 740) rotate(140)"><path d="M0 90Q-68 22 0 0Q68 22 0 90" fill="#7E8969"/><path d="M0 12V95" stroke="#ffffff" stroke-opacity=".35" stroke-width="3"/></g><g transform="translate(550 755)"><ellipse cy="-43" rx="23" ry="43" fill="#A96666" transform="rotate(0)"/><ellipse cy="-43" rx="23" ry="43" fill="#A96666" transform="rotate(51.42857142857143)"/><ellipse cy="-43" rx="23" ry="43" fill="#A96666" transform="rotate(102.85714285714286)"/><ellipse cy="-43" rx="23" ry="43" fill="#A96666" transform="rotate(154.28571428571428)"/><ellipse cy="-43" rx="23" ry="43" fill="#A96666" transform="rotate(205.71428571428572)"/><ellipse cy="-43" rx="23" ry="43" fill="#A96666" transform="rotate(257.14285714285717)"/><ellipse cy="-43" rx="23" ry="43" fill="#A96666" transform="rotate(308.57142857142856)"/><circle cx="0" cy="0" r="23" fill="#E8B84D"/></g><g transform="translate(590 90) rotate(20)"><path d="M0 90Q-68 22 0 0Q68 22 0 90" fill="#7E8969"/><path d="M0 12V95" stroke="#ffffff" stroke-opacity=".35" stroke-width="3"/></g><g transform="translate(600 105)"><ellipse cy="-43" rx="23" ry="43" fill="#A96666" transform="rotate(0)"/><ellipse cy="-43" rx="23" ry="43" fill="#A96666" transform="rotate(51.42857142857143)"/><ellipse cy="-43" rx="23" ry="43" fill="#A96666" transform="rotate(102.85714285714286)"/><ellipse cy="-43" rx="23" ry="43" fill="#A96666" transform="rotate(154.28571428571428)"/><ellipse cy="-43" rx="23" ry="43" fill="#A96666" transform="rotate(205.71428571428572)"/><ellipse cy="-43" rx="23" ry="43" fill="#A96666" transform="rotate(257.14285714285717)"/><ellipse cy="-43" rx="23" ry="43" fill="#A96666" transform="rotate(308.57142857142856)"/><circle cx="0" cy="0" r="23" fill="#E8B84D"/></g><g transform="translate(85 750) rotate(45)"><path d="M0 90Q-68 22 0 0Q68 22 0 90" fill="#7E8969"/><path d="M0 12V95" stroke="#ffffff" stroke-opacity=".35" stroke-width="3"/></g><g transform="translate(95 765)"><ellipse cy="-43" rx="23" ry="43" fill="#A96666" transform="rotate(0)"/><ellipse cy="-43" rx="23" ry="43" fill="#A96666" transform="rotate(51.42857142857143)"/><ellipse cy="-43" rx="23" ry="43" fill="#A96666" transform="rotate(102.85714285714286)"/><ellipse cy="-43" rx="23" ry="43" fill="#A96666" transform="rotate(154.28571428571428)"/><ellipse cy="-43" rx="23" ry="43" fill="#A96666" transform="rotate(205.71428571428572)"/><ellipse cy="-43" rx="23" ry="43" fill="#A96666" transform="rotate(257.14285714285717)"/><ellipse cy="-43" rx="23" ry="43" fill="#A96666" transform="rotate(308.57142857142856)"/><circle cx="0" cy="0" r="23" fill="#E8B84D"/></g></svg>