<svg xmlns="http://www.w3.org/2000/svg" viewBox="0 0 120 120" width="120" height="120"><g transform="translate(30 30)"><path d="M0,-18 C-5,-10 -5,-2 0,2 C5,-2 5,-10 0,-18Z" fill="#000"/><path d="M0,2 C-9,0 -12,-9 -10,-15 C-6,-10 -3,-5 0,2Z M0,2 C9,0 12,-9 10,-15 C6,-10 3,-5 0,2Z" fill="#000" opacity=".7"/><path d="M0,2 V20" stroke="#000" stroke-width="1.4"/><path d="M0,16 C-7,14 -10,9 -10,5 C-5,7 -2,10 0,16Z M0,16 C7,14 10,9 10,5 C5,7 2,10 0,16Z" fill="#000" opacity=".6"/></g><g transform="translate(90 30)"><path d="M-9,-6 L-6,-14 L-2,-8 L0,-16 L2,-8 L6,-14 L9,-6 C6,-1 -6,-1 -9,-6Z" fill="#000"/><path d="M-4,-2 L4,-2 L2,4 L-2,4Z" fill="#000" opacity=".7"/><path d="M0,4 V20" stroke="#000" stroke-width="1.3"/><circle cx="-6" cy="12" r="2" fill="#000" opacity=".6"/><circle cx="6" cy="12" r="2" fill="#000" opacity=".6"/></g><g transform="translate(30 90)"><path d="M-9,-6 L-6,-14 L-2,-8 L0,-16 L2,-8 L6,-14 L9,-6 C6,-1 -6,-1 -9,-6Z" fill="#000"/><path d="M-4,-2 L4,-2 L2,4 L-2,4Z" fill="#000" opacity=".7"/><path d="M0,4 V20" stroke="#000" stroke-width="1.3"/><circle cx="-6" cy="12" r="2" fill="#000" opacity=".6"/><circle cx="6" cy="12" r="2" fill="#000" opacity=".6"/></g><g transform="translate(90 90)"><path d="M0,-18 C-5,-10 -5,-2 0,2 C5,-2 5,-10 0,-18Z" fill="#000"/><path d="M0,2 C-9,0 -12,-9 -10,-15 C-6,-10 -3,-5 0,2Z M0,2 C9,0 12,-9 10,-15 C6,-10 3,-5 0,2Z" fill="#000" opacity=".7"/><path d="M0,2 V20" stroke="#000" stroke-width="1.4"/><path d="M0,16 C-7,14 -10,9 -10,5 C-5,7 -2,10 0,16Z M0,16 C7,14 10,9 10,5 C5,7 2,10 0,16Z" fill="#000" opacity=".6"/></g><circle cx="60" cy="60" r="1.6" fill="#000"/><circle cx="0" cy="60" r="1.6" fill="#000"/><circle cx="60" cy="0" r="1.6" fill="#000"/><circle cx="120" cy="60" r="1.6" fill="#000"/><circle cx="60" cy="120" r="1.6" fill="#000"/></svg>
